PathFileType	4	(X/Y/Z)	C:/Users/beibeiliu/ov580/test_trc/User3\sequence.21_training_dense_right.trc
DataRate	CameraRate	NumFrames	NumMarkers	Units	OrigDataRate	OrigDataStartFrame	OrigNumFrames
120	120	24	19	mm	120	232	265
Frame#	Time	ThumbCMC			ThumbMCP			ThumbIP			ThumbTip			IndexMCP			IndexPIP			IndexTip			MiddleMCP			MiddlePIP			MiddleTip			RingMCP			RingPIP			RingTip			PinkyMCP			PinkyPIP			PinkyTip			BackHand1			BackHand2			BackHand3	
		X0	Y0	Z0	X1	Y1	Z1	X2	Y2	Z2	X3	Y3	Z3	X4	Y4	Z4	X5	Y5	Z5	X6	Y6	Z6	X7	Y7	Z7	X8	Y8	Z8	X9	Y9	Z9	X10	Y10	Z10	X11	Y11	Z11	X12	Y12	Z12	X13	Y13	Z13	X14	Y14	Z14	X15	Y15	Z15	X16	Y16	Z16	X17	Y17	Z17	X18	Y18	Z18	
231	1.925	125.852	-17.2622	-10.2328	106.041	-28.9558	-27.1087	92.1952	-45.7873	-52.8744	86.2851	-65.0633	-67.2752	109.759	-57.4839	-68.843	86.7587	-71.8399	-53.2032	99.7988	-55.8525	-25.1508	118.665	-76.7484	-56.5336	99.7952	-80.9133	-31.8034	125.797	-54.4663	-10.7421	128.689	-84.4538	-44.5557	113.878	-87.0884	-15.0217	126.662	-60.763	-0.00105296	143.984	-93.222	-32.2922	123.796	-92.7221	-11.4583	119.767	-73.2639	11.729	174.174	-50.3315	-33.6735	183.446	-36.3822	-8.82859	159.906	-21.5108	-27.5159	
232	1.93333	133.053	-9.76633	-5.40326	109.962	-19.4349	-25.2521	90.8357	-38.2589	-45.8917	77.195	-51.4894	-59.1214	111.313	-54.7477	-64.5761	80.1002	-63.2574	-54.5396	90.2715	-47.3876	-26.4392	109.416	-72.4267	-48.1001	88.9238	-68.4836	-19.7472	120.1	-50.0591	-3.9743	116.583	-84.061	-33.0807	98.8157	-75.3387	-8.98137	118.784	-55.6392	10.7944	122.896	-88.82	-22.4628	112.423	-76.3603	-0.988412	138.057	-57.6803	11.4569	167.839	-60.9808	-27.1418	181.9	-45.7748	-3.05024	163.683	-26.8426	-21.3417	
233	1.94167	141.59	-12.4606	-14.317	114.928	-21.6506	-32.3958	91.9827	-36.4585	-47.8281	77.6234	-45.0859	-55.173	107.351	-46.58	-61.4645	81.2389	-38.1941	-41.9237	94.6784	-29.471	-15.4736	98.7814	-67.311	-46.1507	82.3455	-48.7988	-25.35	113.743	-43.5194	-4.2322	100.252	-79.1314	-29.5834	86.3207	-59.1849	-12.8029	111.454	-47.0764	3.69626	103.983	-85.2733	-14.4483	96.3928	-63.0958	2.73244	123.307	-56.7628	12.116	156.773	-78.4492	-12.0844	171.448	-65.1455	11.4163	166.143	-40.0529	-19.7884	
234	1.95	139.037	-8.78327	-12.566	109.583	-12.1643	-30.2553	87.5527	-29.3575	-43.086	68.8845	-34.7039	-53.6216	95.2893	-47.2976	-57.2063	69.6693	-35.6967	-38.984	94.6046	-24.2246	-17.9593	91.8818	-60.5248	-41.1057	76.7465	-41.9665	-12.4002	114.881	-38.6089	-2.28155	94.9152	-75.1299	-23.8026	81.2523	-52.8178	-3.95505	115.235	-40.8895	3.36609	98.8386	-80.6766	-6.97377	97.7857	-57.1253	13.2314	125.297	-53.9397	15.3809	148.125	-72.9609	-20.3195	170.491	-62.0879	1.89222	160.586	-36.3014	-25.9601	
235	1.95833	137.744	-6.62597	-13.8955	110.024	-6.90243	-31.2024	86.5124	-22.1209	-43.3789	68.4681	-30.2473	-52.0797	92.0297	-35.8706	-53.4003	73.1914	-22.4836	-34.5007	103.231	-16.7064	-12.4895	85.5513	-55.2478	-37.983	74.1244	-35.5499	-15.0266	110.871	-29.1562	-2.7057	87.1911	-65.411	-20.1193	78.7639	-41.0543	-4.98302	110.986	-32.7269	2.46149	92.3824	-71.4146	-6.70864	90.8709	-48.6551	9.62949	122.518	-46.3358	12.8506	144.017	-72.86	-13.8751	165.409	-60.4246	10.7358	158.779	-38.6512	-18.2239	
236	1.96667	139.383	-5.6459	-14.7752	112.171	-4.13048	-30.107	84.5029	-15.4407	-42.6028	65.7502	-18.1948	-50.0523	89.0309	-32.2374	-50.9725	73.011	-13.4561	-27.0584	102.088	-11.7652	-11.6841	84.6979	-45.7893	-37.0048	74.6385	-26.5352	-11.4323	109.937	-26.7733	0.720387	83.629	-53.9416	-18.7075	81.3631	-37.0481	4.20908	117.749	-30.4783	4.35487	88.0479	-63.7585	-2.89372	89.8359	-45.5078	15.7854	120.267	-42.6442	15.4489	143.46	-65.5665	-16.7421	163.84	-55.6621	3.11752	157.148	-34.8411	-26.6228	
237	1.975	146.41	-4.95714	-12.1724	119.089	0.190414	-32.4042	94.3091	-7.63471	-44.0885	76.036	-8.4146	-55.696	92.1544	-27.9905	-50.8155	76.8996	-5.82094	-31.2951	103.777	-4.84266	-14.4486	82.6931	-40.7893	-33.699	75.4918	-22.6447	-9.74076	112.28	-24.689	4.0227	84.9182	-51.3972	-14.3168	84.6718	-25.9627	3.40322	117.153	-26.9638	9.75543	84.9473	-59.0025	-2.07776	86.459	-37.2416	12.0367	117.685	-39.6272	19.6562	140.818	-66.691	-8.91434	162.28	-60.2254	13.9468	158.76	-39.5956	-17.1444	
238	1.98333	149.308	-0.861218	-12.5374	122.183	5.02404	-31.1893	94.6697	-2.23147	-48.308	76.4381	-9.08262	-54.8678	94.2368	-23.0133	-52.4751	77.2013	-6.35169	-31.5211	106.274	-0.943969	-13.6758	87.4254	-38.3002	-34.8859	77.8903	-14.0196	-14.438	117.854	-14.4143	-1.10783	89.5761	-48.7855	-19.1841	83.1333	-25.1582	1.44824	116.976	-21.5312	6.63184	88.6387	-58.6438	-2.51053	89.1319	-31.9463	11.4314	118.709	-30.9541	13.973	141.893	-63.6855	-12.6208	166.201	-55.1855	10.4104	160.972	-32.1773	-23.9742	
239	1.99167	158.532	-3.52713	-14.408	131.212	1.61567	-35.0441	103.799	2.32257	-48.8047	82.0736	-3.4969	-56.3653	103.551	-20.3517	-56.2884	87.6714	3.33943	-42.3516	113.681	9.26664	-18.0212	91.634	-31.0244	-43.7232	82.5296	-5.54403	-23.0791	118.149	-9.77926	-5.95934	86.3773	-34.7245	-21.7501	90.2923	-8.20727	-6.20842	121.127	-12.5526	0.405457	88.2914	-40.1631	-5.77825	94.8499	-18.9016	10.1749	123.499	-33.6439	15.9124	135.191	-66.0291	-9.07256	158.596	-57.8727	12.7334	161.28	-39.8524	-20.8954	
240	2	165.96	-0.373613	-11.5446	141.904	7.69834	-34.2289	117.103	7.1455	-47.2457	94.0937	4.59427	-59.7314	110.741	-14.6231	-59.8735	87.3988	6.53176	-46.9866	109.478	5.2272	-18.2772	94.9292	-23.3875	-40.4918	88.5581	-2.36895	-17.2239	123.903	-7.72683	-2.45517	93.5527	-33.6702	-20.1044	95.1819	-11.126	2.27056	129.771	-13.6662	1.96123	93.4472	-40.335	-3.13089	101.278	-20.0517	8.50487	131.338	-26.8515	11.0064	141.84	-61.4683	-13.8311	164.844	-59.9092	7.2835	170.033	-34.7465	-20.6798	
241	2.00833	173.428	-2.16289	-17.5264	150.951	3.54589	-38.4942	127.107	6.31689	-56.3491	103.82	2.5794	-65.6358	112.141	-18.8273	-62.6179	92.2961	-0.349558	-48.6112	112.101	3.69243	-19.9502	98.6315	-31.2057	-39.68	90.4227	-5.10963	-24.7738	128.758	-3.81373	-10.1231	100.08	-35.5885	-23.5489	95.3055	-12.046	-3.91885	130.839	-13.8125	3.73353	99.9495	-42.767	-4.72918	109.765	-16.4319	6.89549	136.835	-27.454	3.36169	146.506	-65.8221	-10.7486	173.359	-58.3837	10.7966	173.053	-41.7772	-20.0974	
242	2.01667	179.427	-6.14319	-25.2242	158.651	0.780317	-50.8201	133.104	2.04367	-68.8304	114.346	1.45852	-72.2478	116.566	-16.6965	-68.8274	102.282	6.09183	-56.1498	124.716	7.67723	-32.3373	103.528	-28.5336	-48.8522	97.7982	1.91593	-34.5168	133.201	-3.08179	-16.4693	95.586	-31.3264	-29.773	99.5138	-4.81985	-14.7702	131.342	-13.6271	-2.73842	98.759	-36.0316	-8.05164	110.051	-12.0465	-5.81495	140.468	-26.3156	-3.07257	142.299	-65.8527	-14.4564	168.468	-58.7698	5.92786	175.374	-41.2755	-25.1312	
243	2.025	185.817	-12.5831	-19.5331	173.177	0.782497	-44.109	144.958	-0.439443	-66.1112	121.198	-2.31419	-68.5816	142.31	-24.4539	-77.7669	122.828	3.04438	-79.4086	137.961	11.5513	-50.6693	120.272	-24.5933	-66.397	111.933	5.53344	-53.4881	131.579	-4.17824	-22.5753	109.039	-25.6299	-50.6573	106.529	0.18435	-35.2221	133.317	-6.28701	-15.2385	104.692	-30.7343	-32.6467	106.347	-7.87036	-15.077	129.594	-22.0162	3.64598	145.075	-65.5649	-18.2688	160.962	-63.0753	7.8374	180.292	-46.4715	-18.8605	
244	2.03333	189.94	-12.2746	-19.7672	175.849	-2.86918	-51.204	154.215	-0.896246	-69.1277	125.519	-11.0968	-70.9452	147.598	-25.1738	-84.4946	126.79	-0.274067	-84.1535	139.53	10.1466	-53.3014	129.886	-28.9863	-74.1349	114.988	-0.437117	-61.6345	134.413	-5.72608	-30.2493	117.85	-34.3813	-53.4849	112.485	-6.21982	-41.6995	139.385	-13.1747	-19.0967	109.76	-37.5552	-38.4909	109.952	-14.0451	-25.41	137.005	-24.2561	-8.51967	153.57	-67.0363	-26.8198	167.587	-65.678	3.51544	188.04	-48.6382	-26.9623	
245	2.04167	196.494	-14.1737	-22.4315	186.064	-5.87974	-45.2536	168.753	-5.37211	-69.8689	147.882	-9.51979	-86.7873	157.83	-32.6132	-83.7759	138.932	-5.71449	-86.4912	151.757	2.45815	-54.5893	134.615	-37.5763	-73.0777	125.251	-7.34622	-65.9231	149.054	-10.8216	-30.6744	124.561	-43.4148	-61.1106	112.884	-16.9962	-48.0308	134.741	-14.8655	-23.9116	119.408	-46.4853	-39.726	119.718	-20.2018	-26.0383	146.153	-29.6597	-11.8002	162.731	-70.34	-23.9044	177.086	-68.4327	5.05365	193.537	-52.6479	-20.8871	
246	2.05	202.576	-16.723	-18.585	193.469	-10.2602	-53.053	174.604	-14.4954	-76.8029	161.496	-10.7214	-93.3622	167.19	-40.1693	-83.6665	146.191	-13.3998	-90.686	155.122	-4.34664	-59.6542	143.733	-44.7335	-75.5745	131.744	-12.4147	-71.6119	150.092	-18.6208	-33.1231	130.918	-50.6289	-59.7072	119.866	-22.4517	-53.9646	144.193	-20.3839	-26.1689	120.389	-50.0688	-43.7744	124.805	-24.1304	-34.1593	143.529	-30.0863	-15.1003	163.498	-75.0466	-23.3391	176.731	-71.7641	6.80419	197.114	-56.3067	-21.1395	
247	2.05833	209.004	-23.8014	-26.3582	197.307	-22.0168	-53.8909	185.579	-24.0045	-78.9372	172.638	-27.7599	-99.2311	169.429	-51.1269	-81.781	147.569	-24.8833	-85.6924	157.467	-16.3725	-55.8894	143.875	-54.95	-69.2603	136.912	-20.2951	-65.073	160.935	-20.3806	-35.7294	134.485	-58.0017	-56.0385	125.547	-26.6952	-50.2926	147.363	-22.4343	-28.0884	125.584	-63.6106	-41.5432	117.58	-37.8591	-43.1219	138.142	-28.4279	-21.1358	169.678	-77.0785	-10.7882	184.771	-70.1261	10.5221	203.952	-58.353	-21.3128	
248	2.06667	212.627	-26.6518	-28.7847	206.609	-29.1086	-61.5874	197.058	-34.1221	-84.3201	176.49	-42.9564	-104.731	174.392	-56.6663	-87.1739	155.314	-30.7282	-87.7838	169.72	-22.8078	-56.8709	149.595	-60.5886	-72.605	144.873	-28.9747	-72.0123	165.532	-25.767	-40.9699	143.745	-68.5412	-58.4462	129.643	-39.6728	-60.8935	150.948	-29.906	-33.8482	126.482	-62.5865	-39.6151	130.399	-37.1835	-43.0386	155.879	-33.1058	-26.2241	177.606	-78.3676	-13.5368	186.83	-68.2552	13.6892	204.514	-63.4794	-19.0922	
249	2.075	212.202	-29.5557	-19.988	212.33	-29.7491	-51.1039	211.336	-36.0234	-83.1937	192.515	-47.6483	-99.7904	190.521	-65.8236	-85.6964	176.096	-41.9341	-97.0668	179.555	-28.2596	-62.512	168.176	-68.4842	-79.0832	158.813	-39.239	-82.7993	173.346	-30.4091	-47.6894	156.691	-67.7149	-67.5756	143.528	-39.5447	-62.3653	162.768	-33.4301	-37.2172	140.417	-72.8684	-52.4139	139.659	-45.7923	-55.3255	157.424	-39.9268	-30.2968	182.562	-85.4653	-16.8073	183.512	-69.3932	14.517	212.099	-63.1555	-11.8679	
250	2.08333	213.087	-29.1219	-18.1939	216.716	-32.9448	-48.8783	212.768	-45.3688	-81.2773	207.404	-51.2219	-96.6176	207	-68.6052	-84.3638	187.082	-47.8557	-93.5909	186.865	-33.6549	-63.9878	182.317	-78.4362	-78.6452	169.387	-52.0289	-87.2301	178.334	-38.5422	-47.7888	164.862	-79.2919	-67.7088	156.452	-51.6601	-72.9512	165.967	-40.7078	-42.0976	149.728	-75.7929	-54.5651	153.826	-48.4715	-54.771	167.111	-48.7136	-27.6973	183.582	-88.7864	-10.9584	182.779	-72.1243	15.9507	213.728	-64.4651	-8.17014	
251	2.09167	214.457	-30.3474	-14.645	223.331	-31.3839	-46.5157	219.536	-45.7501	-72.9914	220.829	-53.5553	-96.7453	218.553	-72.5876	-75.4066	205.545	-46.7229	-92.4667	201.808	-32.2575	-63.4908	199.686	-81.55	-75.3279	182.102	-52.8172	-85.6134	183.304	-41.2192	-50.3493	181.158	-81.2993	-67.3696	170.438	-55.2387	-73.8027	177.797	-42.989	-40.991	162.827	-83.4984	-57.2745	159.328	-54.9482	-56.6457	167.252	-51.1603	-28.3786	193.548	-90.088	-13.6448	185.318	-71.989	16.7036	217.076	-63.4421	-2.80707	
252	2.1	215.048	-26.9699	-7.59072	221.396	-28.4855	-45.5146	207.397	-49.0651	-68.1081	193.375	-65.0192	-81.1508	233.659	-70.207	-73.8327	221.002	-55.376	-96.5709	208.528	-32.9538	-71.8524	211.362	-75.498	-77.3272	194.494	-47.0245	-87.561	190.322	-36.6055	-52.4773	193.057	-79.8072	-71.9747	175.446	-55.2725	-77.77	177.307	-43.6243	-49.3298	179.245	-82.9451	-60.9916	162.579	-60.0686	-64.1961	166.519	-53.7872	-34.0507	201.089	-92.5271	-15.9274	190.776	-80.6561	14.56	222.739	-63.3872	1.20992	
253	2.10833	225.977	-27.6839	-10.527	226.53	-33.3625	-48.3126	210.621	-56.6922	-66.7278	188.658	-70.108	-65.1274	241.06	-70.9968	-68.962	225.063	-50.5005	-92.0782	217.067	-32.941	-66.5591	220.053	-77.8253	-77.3448	204.587	-54.8359	-89.5054	195.568	-42.998	-51.1022	200.664	-81.8009	-67.5772	185.48	-53.6083	-76.1665	189.257	-41.5475	-48.6404	182.141	-84.2978	-64.2667	172.07	-59.5795	-67.0556	171.45	-51.1227	-40.1634	201.675	-90.7488	-9.25289	192.276	-78.9988	13.5823	226.821	-67.2864	1.79199	
254	2.11667	221.279	-21.9385	-4.58126	229.083	-22.495	-33.2262	240.917	-29.2075	-66.021	228.751	-52.5735	-83.2515	255.114	-59.3447	-64.4192	239.455	-45.2217	-88.7215	223.695	-26.3924	-68.3871	238.112	-66.9056	-68.0297	217.291	-46.0602	-84.535	200.861	-40.5208	-47.604	218.343	-75.949	-68.0575	194.841	-56.5635	-77.01	191.804	-42.4807	-47.1934	197.142	-86.6944	-63.1749	187.98	-59.7622	-68.9783	182.703	-48.6398	-44.9997	211.952	-90.3523	-11.056	198.42	-78.0769	17.024	230.631	-59.1951	6.93493	
